HIERARCHY
ROOT hip
{
	OFFSET 0.000000 0.000000 0.000000 
	CHANNELS 6 Xposition Yposition Zposition Xrotation Zrotation Yrotation
	JOINT abdomen
	{
		OFFSET 0.000000 3.402643 0.000000 
		CHANNELS 3 Xrotation Zrotation Yrotation
		JOINT chest
		{
			OFFSET 0.000000 8.438565 -0.680529 
			CHANNELS 3 Xrotation Zrotation Yrotation
			JOINT neck
			{
				OFFSET 0.000000 10.207942 -0.272212 
				CHANNELS 3 Xrotation Zrotation Yrotation
				JOINT head
				{
					OFFSET 0.000000 3.130431 0.000000 
					CHANNELS 3 Xrotation Zrotation Yrotation
					End Site
					{
						OFFSET 0.000000 3.130435 0.000000 
					}
				}
			}
			JOINT lCollar
			{
				OFFSET 3.470700 6.669187 -0.816635 
				CHANNELS 3 Yrotation Zrotation Xrotation
				JOINT lShldr
				{
					OFFSET 3.198488 0.000000 0.000000 
					CHANNELS 3 Zrotation Yrotation Xrotation
					JOINT lForeArm
					{
						OFFSET 10.139888 0.000000 0.000000 
						CHANNELS 3 Yrotation Zrotation Xrotation
						JOINT lHand
						{
							OFFSET 8.370511 0.000000 0.000000 
							CHANNELS 3 Zrotation Yrotation Xrotation
							End Site
							{
								OFFSET 4.083176 0.000000 0.000000 
							}
						}
					}
				}
			}
			JOINT rCollar
			{
				OFFSET -3.470700 6.669187 -0.816635 
				CHANNELS 3 Yrotation Zrotation Xrotation
				JOINT rShldr
				{
					OFFSET -3.198488 0.000000 0.000000 
					CHANNELS 3 Zrotation Yrotation Xrotation
					JOINT rForeArm
					{
						OFFSET -10.139888 0.000000 0.000000 
						CHANNELS 3 Yrotation Zrotation Xrotation
						JOINT rHand
						{
							OFFSET -8.370511 0.000000 0.000000 
							CHANNELS 3 Zrotation Yrotation Xrotation
							End Site
							{
								OFFSET -4.083176 0.000000 0.000000 
							}
						}
					}
				}
			}
		}
	}
	JOINT lThigh
	{
		OFFSET 5.308129 -1.633274 1.361059 
		CHANNELS 3 Xrotation Zrotation Yrotation
		JOINT lShin
		{
			OFFSET -2.041588 -20.007561 0.000000 
			CHANNELS 3 Xrotation Zrotation Yrotation
			JOINT lFoot
			{
				OFFSET 0.000000 -19.190928 -1.224953 
				CHANNELS 3 Xrotation Yrotation Zrotation
				End Site
				{
					OFFSET 0.000000 -2.449906 4.627600 
				}
			}
		}
	}
	JOINT rThigh
	{
		OFFSET -5.308129 -1.633274 1.361059 
		CHANNELS 3 Xrotation Zrotation Yrotation
		JOINT rShin
		{
			OFFSET 2.041588 -20.007561 0.000000 
			CHANNELS 3 Xrotation Zrotation Yrotation
			JOINT rFoot
			{
				OFFSET 0.000000 -19.190928 -1.224953 
				CHANNELS 3 Xrotation Yrotation Zrotation
				End Site
				{
					OFFSET 0.000000 -2.449906 4.627600 
				}
			}
		}
	}
}
MOTION
Frames: 11
Frame Time: 0.033333
-6.523273 46.938591 0.038393 3.049827 0.767953 -10.586808 32.197495 3.427680 -0.322273 -3.170420 -2.603230 5.923815 52.897678 -1.972585 -0.488664 -37.919888 1.229499 2.276124 18.977129 -1.192065 24.407055 -76.560715 10.846928 16.746950 -59.354298 40.486877 22.785151 -75.101364 -60.128593 61.018368 11.324906 0.838939 24.996719 22.236687 56.068947 74.253670 -80.566841 -13.298845 -122.696083 70.968170 42.058498 48.441944 -4.005235 20.755489 24.960415 54.143700 -3.024970 -3.093649 -7.301572 -3.354974 -13.317587 -21.780794 -18.002121 -3.682212 58.823761 8.505445 6.335470 -7.282595 0.114871 15.373146 
-6.523347 46.674984 -0.078834 3.568552 0.249935 -10.146557 32.197495 3.427680 -0.322273 -3.205575 -1.757555 6.106324 52.459488 -3.554488 -0.606726 -37.489349 3.589856 6.536874 19.030413 -1.799414 24.613062 -76.958298 5.587900 16.093044 -59.577911 44.020298 17.268631 -81.240974 -54.996113 66.815346 11.249775 0.119247 24.997068 26.119841 52.956417 77.708313 -77.437538 -16.772707 -116.288727 68.686745 44.393017 46.877605 -5.577517 21.654781 25.264370 55.896053 -2.615125 -3.065670 -7.159820 -3.662178 -13.955801 -22.866039 -17.368954 -3.407933 59.762051 8.436036 6.394890 -7.914908 -0.791001 15.562779 
-6.523421 46.411476 -0.196085 4.077661 -0.259897 -9.707152 32.197495 3.427680 -0.322273 -3.245098 -0.912444 6.289817 52.016331 -5.136331 -0.706421 -36.876675 5.918650 10.839899 19.088278 -2.406240 24.822334 -77.303131 0.313152 15.485852 -59.307251 47.546627 11.417755 -85.864777 -49.594105 71.068810 11.165689 -0.606272 24.991684 29.434290 49.723705 80.604897 -73.852219 -19.887367 -109.565674 66.214531 46.679447 45.112488 -7.149438 22.552128 25.561060 57.624695 -2.205440 -3.032274 -7.045777 -3.954717 -14.608950 -23.950682 -16.735064 -3.156126 60.690556 8.339681 6.476156 -8.537280 -1.678596 15.751161 
-6.522743 46.260567 -0.341212 4.899518 -0.299219 -8.740369 32.197495 3.427680 -0.322273 -3.546916 -0.902720 6.299582 50.636909 -6.015091 -0.766735 -35.814358 7.968044 14.656867 18.908171 -2.044481 24.693800 -76.691643 -5.033926 14.945279 -64.219856 49.856556 7.081852 -86.526680 -43.128731 70.428864 10.633716 -1.295874 24.999332 32.633179 45.873318 83.653923 -69.189560 -26.285215 -96.860359 69.686310 50.793324 49.109776 -9.980701 23.745104 25.867744 59.994728 -1.424626 -2.970223 -5.523634 -6.609297 -14.205729 -25.163916 -16.746695 -3.106296 61.291206 8.388136 6.562840 -8.857119 -2.664345 15.940992 
-6.522039 46.109818 -0.486321 5.710351 -0.338648 -7.783356 32.197495 3.427680 -0.322273 -3.838966 -0.892997 6.309347 49.256977 -6.893854 -0.806714 -34.621048 9.937688 18.520485 18.725718 -1.673068 24.565985 -76.018051 -10.367538 14.348527 -69.099388 52.411919 2.845692 -87.219460 -36.672935 69.744743 10.096999 -1.977648 24.996000 35.328449 41.925426 86.206848 -62.723770 -31.526228 -82.845764 73.983582 54.713497 53.919556 -12.812532 24.945633 26.117840 62.385521 -0.643737 -2.870435 -3.972052 -9.294934 -13.697172 -26.382835 -16.745571 -3.027023 61.892532 8.446010 6.616063 -9.163302 -3.660172 16.152334 
-6.493618 46.136665 -0.611132 6.780741 0.135763 -6.777348 32.197495 3.427680 -0.322273 -4.478328 -1.592336 6.154571 47.484631 -7.567542 -0.847961 -33.329464 11.395833 21.300905 18.299351 -0.726620 24.262316 -73.373062 -15.066175 13.416189 -76.707054 54.015812 3.579010 -86.211800 -33.267391 66.777306 9.345114 -2.379949 25.000000 37.296535 38.146992 88.425491 -54.147686 -40.050114 -66.992287 75.643944 58.738754 53.648956 -16.015062 26.213980 26.320286 64.295975 -0.347889 -2.882199 -1.319292 -13.022401 -12.416760 -27.496965 -17.253963 -3.155776 61.759171 8.358889 6.595749 -9.079774 -4.500827 16.276371 
-6.465125 46.163677 -0.735883 7.850350 0.592694 -5.762015 32.197495 3.427680 -0.322273 -5.114316 -2.292031 6.010410 45.710415 -8.241254 -0.868698 -31.969021 12.777514 24.131474 17.870594 0.229173 23.967329 -70.590935 -19.707527 12.248535 -84.655228 55.554428 4.709341 -85.439445 -29.842104 63.987591 8.587987 -2.794439 25.000000 38.992897 34.299431 90.378540 -41.523758 -46.067768 -47.540234 77.489555 62.758518 53.603294 -19.256792 27.502312 26.416315 66.255707 -0.055218 -2.848681 1.463568 -16.702984 -10.937459 -28.630812 -17.752729 -3.273317 61.645123 8.290802 6.559011 -8.986460 -5.331329 16.394730 
-6.357874 46.368877 -0.792307 8.695076 1.323266 -4.903514 32.197495 3.427680 -0.322273 -5.687929 -3.206081 5.819445 44.312241 -8.905122 -0.919930 -31.046448 13.400237 25.740305 17.424261 1.320356 23.658226 -65.844673 -23.429779 10.530675 -89.850388 56.645363 6.587736 -84.548447 -28.567743 61.324226 7.753321 -2.994998 24.998669 39.900734 31.077057 91.854675 -26.070505 -51.462864 -28.803129 72.180443 64.868126 45.156998 -21.346382 28.449427 26.523626 67.082932 -0.543549 -2.981814 3.597279 -19.021671 -9.702047 -29.007280 -18.530735 -3.541403 60.694843 8.134300 6.430313 -8.514099 -6.021618 16.386631 
-6.250546 46.574177 -0.848665 9.544232 2.035983 -4.025751 32.197495 3.427680 -0.322273 -6.266891 -4.130371 5.639182 42.902203 -9.569020 -0.952052 -30.091675 13.992118 27.371727 16.990484 2.413487 23.349058 -60.833237 -27.003187 8.423103 -95.251358 57.628246 8.700138 -83.735146 -27.279161 58.726521 6.918072 -3.194904 24.991957 40.675266 27.849390 93.225685 -7.439527 -52.970188 -6.957519 65.745049 66.577026 35.602909 -23.456419 29.391571 26.615601 67.898079 -1.022408 -3.137625 5.838533 -21.285418 -8.353891 -29.382286 -19.304882 -3.797665 59.763977 7.988286 6.313328 -8.062701 -6.691292 16.349669 
-6.057562 46.889824 -0.833384 10.110594 2.554013 -3.430853 32.197495 3.427680 -0.322273 -6.781065 -4.695048 5.516311 42.222775 -10.086439 -0.982638 -29.716841 14.131688 28.018402 16.678175 3.363734 23.095552 -55.288937 -29.404545 6.116431 -96.596985 58.744682 9.007293 -83.433136 -26.878304 57.502972 6.045050 -3.355963 24.998726 40.972805 25.326153 94.219856 9.590244 -53.679527 14.859198 45.962063 64.607086 10.306836 -24.189623 29.999947 26.759781 67.629211 -1.669813 -3.265398 6.560812 -21.613829 -7.779656 -29.003559 -19.882671 -3.997109 58.160473 7.841686 6.138587 -7.315835 -7.424935 16.346575 
-5.864507 47.205502 -0.818059 10.688234 3.072438 -2.826057 32.197495 3.427680 -0.322273 -7.303496 -5.269664 5.393171 41.534157 -10.603848 -1.015023 -29.323381 14.275705 28.669785 16.378365 4.307849 22.847677 -49.501442 -31.590816 3.494902 -98.014595 59.855713 9.395182 -83.139580 -26.482454 56.285439 5.171510 -3.516771 24.999081 41.230549 22.801804 95.191795 25.442850 -50.628811 35.522644 31.495119 59.646656 -9.737126 -24.941462 30.595022 26.915346 67.347145 -2.323895 -3.392004 7.297092 -21.924829 -7.182920 -28.626209 -20.434261 -4.192655 56.558571 7.695168 5.943453 -6.593204 -8.159389 16.363756 
